<svg xmlns="http://www.w3.org/2000/svg" viewBox="0 0 3600 2400"><rect width="100%" height="100%" fill="white"/><g stroke="#333" stroke-width="2" fill="none"><path d="M 230 210 L 230 274.5 L 195 274.5 L 195 339"/><path d="M 230 210 L 382.5 210 L 382.5 339 L 535 339"/><path d="M 195 339 L 195 396 L 92.5 396 L 92.5 453"/><path d="M 195 339 L 195 396 L 237.5 396 L 237.5 453"/><path d="M 195 339 L 281.25 339 L 281.25 453 L 367.5 453"/><path d="M 195 339 L 195 441 L 117.5 441 L 117.5 543"/><path d="M 195 339 L 195 441 L 292.5 441 L 292.5 543"/><path d="M 195 339 L 315 339 L 315 543 L 435 543"/><path d="M 195 339 L 195 486 L 132.5 486 L 132.5 633"/><path d="M 195 339 L 195 486 L 292.5 486 L 292.5 633"/><path d="M 535 339 L 535 396 L 502.5 396 L 502.5 453"/><path d="M 535 339 L 535 396 L 647.5 396 L 647.5 453"/><path d="M 535 339 L 656.25 339 L 656.25 453 L 777.5 453"/><path d="M 535 339 L 535 441 L 562.5 441 L 562.5 543"/><path d="M 535 339 L 535 441 L 712.5 441 L 712.5 543"/><path d="M 1555 215 L 1451.25 215 L 1451.25 83 L 1347.5 83"/><path d="M 1555 215 L 1555 144 L 1505 144 L 1505 73"/><path d="M 1555 215 L 1555 149 L 1665 149 L 1665 83"/><path d="M 1555 215 L 1555 285 L 1555 285 L 1555 355"/><path d="M 1555 355 L 1380 355 L 1380 529 L 1205 529"/><path d="M 1555 355 L 1555 442 L 1560 442 L 1560 529"/><path d="M 1555 355 L 1737.5 355 L 1737.5 529 L 1920 529"/><path d="M 1205 529 L 1087.5 529 L 1087.5 493 L 970 493"/><path d="M 1205 529 L 1065 529 L 1065 583 L 925 583"/><path d="M 1205 529 L 1141.25 529 L 1141.25 633 L 1077.5 633"/><path d="M 1205 529 L 1045 529 L 1045 673 L 885 673"/><path d="M 1205 529 L 1205 626 L 1022.5 626 L 1022.5 723"/><path d="M 1205 529 L 1205 666 L 935 666 L 935 803"/><path d="M 1560 529 L 1560 583.5 L 1572.5 583.5 L 1572.5 638"/><path d="M 2645 215 L 2645 149 L 2645 149 L 2645 83"/><path d="M 1555 215 L 1875 215 L 1875 217.5 L 2195 217.5"/><path d="M 2195 217.5 L 2420 217.5 L 2420 215 L 2645 215"/><path d="M 1205 529 L 1290 529 L 1290 672.5 L 1375 672.5"/><path d="M 1375 672.5 L 1467.5 672.5 L 1467.5 529 L 1560 529"/><path d="M 1375 672.5 L 1375 727.75 L 1382.5 727.75 L 1382.5 783"/><path d="M 1205 529 L 1205 654 L 1185 654 L 1185 779"/><path d="M 1185 779 L 1185 837 L 1205 837 L 1205 895"/><path d="M 1205 895 L 1120 895 L 1120 973 L 1035 973"/><path d="M 1205 895 L 1205 934 L 1165 934 L 1165 973"/><path d="M 1205 895 L 1257.5 895 L 1257.5 973 L 1310 973"/><path d="M 1605 1161 L 1605 1109.5 L 1605 1109.5 L 1605 1058"/><path d="M 1205 529 L 1205 823.5 L 1325 823.5 L 1325 1118"/><path d="M 1325 1118 L 1465 1118 L 1465 1161 L 1605 1161"/><path d="M 1605 1161 L 1605 1240.5 L 1605 1240.5 L 1605 1320"/><path d="M 1605 1320 L 1372.5 1320 L 1372.5 1540 L 1140 1540"/><path d="M 1605 1320 L 1605 1430 L 1565 1430 L 1565 1540"/><path d="M 1605 1320 L 1805 1320 L 1805 1540 L 2005 1540"/><path d="M 230 1450 L 172.5 1450 L 172.5 1553 L 115 1553"/><path d="M 230 1450 L 230 1501.5 L 300 1501.5 L 300 1553"/><path d="M 230 1450 L 230 1546.5 L 200 1546.5 L 200 1643"/><path d="M 645 1450 L 645 1501.5 L 560 1501.5 L 560 1553"/><path d="M 645 1450 L 645 1501.5 L 735 1501.5 L 735 1553"/><path d="M 230 1450 L 335 1450 L 335 1449 L 440 1449"/><path d="M 440 1449 L 542.5 1449 L 542.5 1450 L 645 1450"/><path d="M 645 1450 L 775 1450 L 775 1450 L 905 1450"/><path d="M 905 1450 L 1022.5 1450 L 1022.5 1540 L 1140 1540"/><path d="M 2475 1030 L 2370 1030 L 2370 1133 L 2265 1133"/><path d="M 2475 1030 L 2475 1081.5 L 2410 1081.5 L 2410 1133"/><path d="M 2475 1030 L 2537.5 1030 L 2537.5 1133 L 2600 1133"/><path d="M 2475 1030 L 2475 1126.5 L 2335 1126.5 L 2335 1223"/><path d="M 2475 1030 L 2475 1126.5 L 2500 1126.5 L 2500 1223"/><path d="M 2475 1030 L 2290 1030 L 2290 1104 L 2105 1104"/><path d="M 2105 1104 L 1855 1104 L 1855 1161 L 1605 1161"/><path d="M 2105 1104 L 2105 1153.5 L 2110 1153.5 L 2110 1203"/><path d="M 3160 1030 L 3160 1081.5 L 3080 1081.5 L 3080 1133"/><path d="M 3160 1030 L 3160 1081.5 L 3240 1081.5 L 3240 1133"/><path d="M 2475 1030 L 2652.5 1030 L 2652.5 1029 L 2830 1029"/><path d="M 2830 1029 L 2995 1029 L 2995 1030 L 3160 1030"/><path d="M 2590 1520 L 2590 1569 L 2520 1569 L 2520 1618"/><path d="M 2590 1520 L 2590 1569 L 2647.5 1569 L 2647.5 1618"/><path d="M 2630 1840 L 2630 1891.5 L 2540 1891.5 L 2540 1943"/><path d="M 2630 1840 L 2630 1891.5 L 2690 1891.5 L 2690 1943"/><path d="M 2590 1520 L 2427.5 1520 L 2427.5 1529 L 2265 1529"/><path d="M 2265 1529 L 2135 1529 L 2135 1540 L 2005 1540"/><path d="M 2630 1840 L 2447.5 1840 L 2447.5 1849 L 2265 1849"/><path d="M 2265 1849 L 2265 1694.5 L 2005 1694.5 L 2005 1540"/></g><text x="1760" y="57.7" text-anchor="middle" font-family="Arial, sans-serif" font-size="13" font-weight="400" fill="#111"><tspan x="1760" dy="0">DER conceptual — Sistema de Gestión Rojas FC</tspan></text><text x="310" y="124.3" text-anchor="middle" font-family="Arial, sans-serif" font-size="17" font-weight="700" fill="#111"><tspan x="310" dy="0">PREINSCRIPCIÓN</tspan></text><text x="1400" y="124.3" text-anchor="middle" font-family="Arial, sans-serif" font-size="17" font-weight="700" fill="#111"><tspan x="1400" dy="0">PERSONAS Y ACCESO</tspan></text><text x="1350" y="1004.3" text-anchor="middle" font-family="Arial, sans-serif" font-size="17" font-weight="700" fill="#111"><tspan x="1350" dy="0">OBLIGACIONES, CUOTAS Y PAGOS</tspan></text><rect x="120" y="180" width="220" height="60" fill="#fff" stroke="#333" stroke-width="2"/><text x="230" y="216" text-anchor="middle" font-family="Arial, sans-serif" font-size="15" font-weight="700" fill="#111"><tspan x="230" dy="0">PREINSCRIPCIÓN</tspan></text><ellipse cx="195" cy="339" rx="125" ry="29" fill="#fff" stroke="#333" stroke-width="2"/><text x="195" y="344.2" text-anchor="middle" font-family="Arial, sans-serif" font-size="13" font-weight="400" fill="#111"><tspan x="195" dy="0">Datos declarados del alumno</tspan></text><ellipse cx="535" cy="339" rx="145" ry="29" fill="#fff" stroke="#333" stroke-width="2"/><text x="535" y="336.4" text-anchor="middle" font-family="Arial, sans-serif" font-size="13" font-weight="400" fill="#111"><tspan x="535" dy="0">Datos declarados del responsable</tspan><tspan x="535" dy="15.6">(1..2)</tspan></text><ellipse cx="92.5" cy="453" rx="62.5" ry="23" fill="#fff" stroke="#333" stroke-width="2"/><text x="92.5" y="458.2" text-anchor="middle" font-family="Arial, sans-serif" font-size="13" font-weight="400" fill="#111"><tspan x="92.5" dy="0">Nombre</tspan></text><ellipse cx="237.5" cy="453" rx="62.5" ry="23" fill="#fff" stroke="#333" stroke-width="2"/><text x="237.5" y="458.2" text-anchor="middle" font-family="Arial, sans-serif" font-size="13" font-weight="400" fill="#111"><tspan x="237.5" dy="0">Apellido</tspan></text><ellipse cx="367.5" cy="453" rx="47.5" ry="23" fill="#fff" stroke="#333" stroke-width="2"/><text x="367.5" y="458.2" text-anchor="middle" font-family="Arial, sans-serif" font-size="13" font-weight="400" fill="#111"><tspan x="367.5" dy="0">DNI</tspan></text><ellipse cx="117.5" cy="543" rx="87.5" ry="23" fill="#fff" stroke="#333" stroke-width="2"/><text x="117.5" y="548.2" text-anchor="middle" font-family="Arial, sans-serif" font-size="13" font-weight="400" fill="#111"><tspan x="117.5" dy="0">Fecha de nacimiento</tspan></text><ellipse cx="292.5" cy="543" rx="67.5" ry="23" fill="#fff" stroke="#333" stroke-width="2"/><text x="292.5" y="548.2" text-anchor="middle" font-family="Arial, sans-serif" font-size="13" font-weight="400" fill="#111"><tspan x="292.5" dy="0">Domicilio</tspan></text><ellipse cx="435" cy="543" rx="55" ry="23" fill="#fff" stroke="#333" stroke-width="2"/><text x="435" y="548.2" text-anchor="middle" font-family="Arial, sans-serif" font-size="13" font-weight="400" fill="#111"><tspan x="435" dy="0">Barrio</tspan></text><ellipse cx="132.5" cy="633" rx="62.5" ry="23" fill="#fff" stroke="#333" stroke-width="2"/><text x="132.5" y="638.2" text-anchor="middle" font-family="Arial, sans-serif" font-size="13" font-weight="400" fill="#111"><tspan x="132.5" dy="0">Localidad</tspan></text><ellipse cx="292.5" cy="633" rx="62.5" ry="23" fill="#fff" stroke="#333" stroke-width="2"/><text x="292.5" y="638.2" text-anchor="middle" font-family="Arial, sans-serif" font-size="13" font-weight="400" fill="#111"><tspan x="292.5" dy="0">Colegio</tspan></text><ellipse cx="502.5" cy="453" rx="62.5" ry="23" fill="#fff" stroke="#333" stroke-width="2"/><text x="502.5" y="458.2" text-anchor="middle" font-family="Arial, sans-serif" font-size="13" font-weight="400" fill="#111"><tspan x="502.5" dy="0">Nombre</tspan></text><ellipse cx="647.5" cy="453" rx="62.5" ry="23" fill="#fff" stroke="#333" stroke-width="2"/><text x="647.5" y="458.2" text-anchor="middle" font-family="Arial, sans-serif" font-size="13" font-weight="400" fill="#111"><tspan x="647.5" dy="0">Apellido</tspan></text><ellipse cx="777.5" cy="453" rx="47.5" ry="23" fill="#fff" stroke="#333" stroke-width="2"/><text x="777.5" y="458.2" text-anchor="middle" font-family="Arial, sans-serif" font-size="13" font-weight="400" fill="#111"><tspan x="777.5" dy="0">DNI</tspan></text><ellipse cx="562.5" cy="543" rx="62.5" ry="23" fill="#fff" stroke="#333" stroke-width="2"/><text x="562.5" y="548.2" text-anchor="middle" font-family="Arial, sans-serif" font-size="13" font-weight="400" fill="#111"><tspan x="562.5" dy="0">Teléfono</tspan></text><ellipse cx="712.5" cy="543" rx="62.5" ry="23" fill="#fff" stroke="#333" stroke-width="2"/><text x="712.5" y="548.2" text-anchor="middle" font-family="Arial, sans-serif" font-size="13" font-weight="400" fill="#111"><tspan x="712.5" dy="0">Vínculo</tspan></text><rect x="90" y="715" width="620" height="90" fill="#fffdf2" stroke="#777" stroke-width="1.5"/><text x="102" y="757.6" text-anchor="start" font-family="Arial, sans-serif" font-size="12" font-weight="400" fill="#111"><tspan x="102" dy="0">Pendiente de revisión. Mientras está pendiente no representa todavía Alumno/Responsable</tspan><tspan x="102" dy="14.399999999999999">definitivos y no genera obligaciones económicas.</tspan></text><rect x="1450" y="185" width="210" height="60" fill="#fff" stroke="#333" stroke-width="2"/><text x="1555" y="221" text-anchor="middle" font-family="Arial, sans-serif" font-size="15" font-weight="700" fill="#111"><tspan x="1555" dy="0">PERSONA</tspan></text><ellipse cx="1347.5" cy="83" rx="57.5" ry="23" fill="#fff" stroke="#333" stroke-width="2"/><text x="1347.5" y="88.2" text-anchor="middle" font-family="Arial, sans-serif" font-size="13" font-weight="400" fill="#111"><tspan x="1347.5" dy="0">DNI</tspan></text><ellipse cx="1505" cy="73" rx="65" ry="23" fill="#fff" stroke="#333" stroke-width="2"/><text x="1505" y="78.2" text-anchor="middle" font-family="Arial, sans-serif" font-size="13" font-weight="400" fill="#111"><tspan x="1505" dy="0">Nombre</tspan></text><ellipse cx="1665" cy="83" rx="65" ry="23" fill="#fff" stroke="#333" stroke-width="2"/><text x="1665" y="88.2" text-anchor="middle" font-family="Arial, sans-serif" font-size="13" font-weight="400" fill="#111"><tspan x="1665" dy="0">Apellido</tspan></text><polygon points="1555,320 1600,390 1510,390" fill="#fff" stroke="#333" stroke-width="2"/><text x="1555" y="360.2" text-anchor="middle" font-family="Arial, sans-serif" font-size="13" font-weight="700" fill="#111"><tspan x="1555" dy="0">ISA</tspan></text><text x="1555" y="420.2" text-anchor="middle" font-family="Arial, sans-serif" font-size="13" font-weight="400" fill="#111"><tspan x="1555" dy="0">Especialización total y exclusiva</tspan></text><rect x="1110" y="500" width="190" height="58" fill="#fff" stroke="#333" stroke-width="2"/><text x="1205" y="535" text-anchor="middle" font-family="Arial, sans-serif" font-size="15" font-weight="700" fill="#111"><tspan x="1205" dy="0">ALUMNO</tspan></text><rect x="1450" y="500" width="220" height="58" fill="#fff" stroke="#333" stroke-width="2"/><text x="1560" y="535" text-anchor="middle" font-family="Arial, sans-serif" font-size="15" font-weight="700" fill="#111"><tspan x="1560" dy="0">RESPONSABLE</tspan></text><rect x="1810" y="500" width="220" height="58" fill="#fff" stroke="#333" stroke-width="2"/><text x="1920" y="535" text-anchor="middle" font-family="Arial, sans-serif" font-size="15" font-weight="700" fill="#111"><tspan x="1920" dy="0">ADMINISTRADOR</tspan></text><ellipse cx="970" cy="493" rx="90" ry="23" fill="#fff" stroke="#333" stroke-width="2"/><text x="970" y="498.2" text-anchor="middle" font-family="Arial, sans-serif" font-size="13" font-weight="400" fill="#111"><tspan x="970" dy="0">Fecha de nacimiento</tspan></text><ellipse cx="925" cy="583" rx="65" ry="23" fill="#fff" stroke="#333" stroke-width="2"/><text x="925" y="588.2" text-anchor="middle" font-family="Arial, sans-serif" font-size="13" font-weight="400" fill="#111"><tspan x="925" dy="0">Colegio</tspan></text><ellipse cx="1077.5" cy="633" rx="67.5" ry="23" fill="#fff" stroke="#333" stroke-width="2"/><text x="1077.5" y="638.2" text-anchor="middle" font-family="Arial, sans-serif" font-size="13" font-weight="400" fill="#111"><tspan x="1077.5" dy="0">Domicilio</tspan></text><ellipse cx="885" cy="673" rx="55" ry="23" fill="#fff" stroke="#333" stroke-width="2"/><text x="885" y="678.2" text-anchor="middle" font-family="Arial, sans-serif" font-size="13" font-weight="400" fill="#111"><tspan x="885" dy="0">Barrio</tspan></text><ellipse cx="1022.5" cy="723" rx="67.5" ry="23" fill="#fff" stroke="#333" stroke-width="2"/><text x="1022.5" y="728.2" text-anchor="middle" font-family="Arial, sans-serif" font-size="13" font-weight="400" fill="#111"><tspan x="1022.5" dy="0">Localidad</tspan></text><ellipse cx="935" cy="803" rx="135" ry="23" fill="#fff" stroke="#333" stroke-width="2"/><text x="935" y="800.4" text-anchor="middle" font-family="Arial, sans-serif" font-size="13" font-weight="400" fill="#111"><tspan x="935" dy="0">Importe de cuota particular</tspan><tspan x="935" dy="15.6">(opcional)</tspan></text><ellipse cx="1572.5" cy="638" rx="62.5" ry="23" fill="#fff" stroke="#333" stroke-width="2"/><text x="1572.5" y="643.2" text-anchor="middle" font-family="Arial, sans-serif" font-size="13" font-weight="400" fill="#111"><tspan x="1572.5" dy="0">Teléfono</tspan></text><rect x="2550" y="185" width="190" height="60" fill="#fff" stroke="#333" stroke-width="2"/><text x="2645" y="221" text-anchor="middle" font-family="Arial, sans-serif" font-size="15" font-weight="700" fill="#111"><tspan x="2645" dy="0">USUARIO</tspan></text><ellipse cx="2645" cy="83" rx="70" ry="23" fill="#fff" stroke="#333" stroke-width="2"/><text x="2645" y="88.2" text-anchor="middle" font-family="Arial, sans-serif" font-size="13" font-weight="400" fill="#111"><tspan x="2645" dy="0">Contraseña</tspan></text><polygon points="2195,175 2280,217.5 2195,260 2110,217.5" fill="#fff" stroke="#333" stroke-width="2"/><text x="2195" y="222.7" text-anchor="middle" font-family="Arial, sans-serif" font-size="13" font-weight="700" fill="#111"><tspan x="2195" dy="0">POSEE CUENTA</tspan></text><text x="1950" y="207.7" text-anchor="middle" font-family="Arial, sans-serif" font-size="13" font-weight="400" fill="#111"><tspan x="1950" dy="0">0..1</tspan></text><text x="2390" y="207.7" text-anchor="middle" font-family="Arial, sans-serif" font-size="13" font-weight="400" fill="#111"><tspan x="2390" dy="0">1</tspan></text><rect x="2360" y="300" width="400" height="70" fill="#fffdf2" stroke="#777" stroke-width="1.5"/><text x="2372" y="339.8" text-anchor="start" font-family="Arial, sans-serif" font-size="12" font-weight="400" fill="#111"><tspan x="2372" dy="0">Solo Responsable y Administrador pueden poseer Usuario.</tspan></text><polygon points="1375,625 1480,672.5 1375,720 1270,672.5" fill="#fff" stroke="#333" stroke-width="2"/><text x="1375" y="677.7" text-anchor="middle" font-family="Arial, sans-serif" font-size="13" font-weight="700" fill="#111"><tspan x="1375" dy="0">TIENE COMO RESPONSABLE</tspan></text><text x="1220" y="627.7" text-anchor="middle" font-family="Arial, sans-serif" font-size="13" font-weight="400" fill="#111"><tspan x="1220" dy="0">1..2</tspan></text><text x="1515" y="627.7" text-anchor="middle" font-family="Arial, sans-serif" font-size="13" font-weight="400" fill="#111"><tspan x="1515" dy="0">1..N</tspan></text><ellipse cx="1382.5" cy="783" rx="62.5" ry="23" fill="#fff" stroke="#333" stroke-width="2"/><text x="1382.5" y="788.2" text-anchor="middle" font-family="Arial, sans-serif" font-size="13" font-weight="400" fill="#111"><tspan x="1382.5" dy="0">Vínculo</tspan></text><rect x="1080" y="865" width="250" height="60" fill="#fff" stroke="#333" stroke-width="2"/><text x="1205" y="901" text-anchor="middle" font-family="Arial, sans-serif" font-size="15" font-weight="700" fill="#111"><tspan x="1205" dy="0">MOVIMIENTO DE ALUMNO</tspan></text><polygon points="1185,740 1255,779 1185,818 1115,779" fill="#fff" stroke="#333" stroke-width="2"/><text x="1185" y="784.2" text-anchor="middle" font-family="Arial, sans-serif" font-size="13" font-weight="700" fill="#111"><tspan x="1185" dy="0">REGISTRA</tspan></text><text x="1075" y="722.7" text-anchor="middle" font-family="Arial, sans-serif" font-size="13" font-weight="400" fill="#111"><tspan x="1075" dy="0">1</tspan></text><text x="1220" y="842.7" text-anchor="middle" font-family="Arial, sans-serif" font-size="13" font-weight="400" fill="#111"><tspan x="1220" dy="0">1..N</tspan></text><ellipse cx="1035" cy="973" rx="55" ry="23" fill="#fff" stroke="#333" stroke-width="2"/><text x="1035" y="978.2" text-anchor="middle" font-family="Arial, sans-serif" font-size="13" font-weight="400" fill="#111"><tspan x="1035" dy="0">Tipo</tspan></text><ellipse cx="1165" cy="973" rx="55" ry="23" fill="#fff" stroke="#333" stroke-width="2"/><text x="1165" y="978.2" text-anchor="middle" font-family="Arial, sans-serif" font-size="13" font-weight="400" fill="#111"><tspan x="1165" dy="0">Fecha</tspan></text><ellipse cx="1310" cy="973" rx="70" ry="23" fill="#fff" stroke="#333" stroke-width="2"/><text x="1310" y="978.2" text-anchor="middle" font-family="Arial, sans-serif" font-size="13" font-weight="400" fill="#111"><tspan x="1310" dy="0">Observación</tspan></text><rect x="1480" y="1130" width="250" height="62" fill="#fff" stroke="#333" stroke-width="2"/><text x="1605" y="1167" text-anchor="middle" font-family="Arial, sans-serif" font-size="15" font-weight="700" fill="#111"><tspan x="1605" dy="0">OBLIGACIÓN DE PAGO</tspan></text><ellipse cx="1605" cy="1058" rx="60" ry="23" fill="#fff" stroke="#333" stroke-width="2"/><text x="1605" y="1063.2" text-anchor="middle" font-family="Arial, sans-serif" font-size="13" font-weight="400" fill="#111"><tspan x="1605" dy="0">Importe</tspan></text><polygon points="1325,1080 1390,1118 1325,1156 1260,1118" fill="#fff" stroke="#333" stroke-width="2"/><text x="1325" y="1123.2" text-anchor="middle" font-family="Arial, sans-serif" font-size="13" font-weight="700" fill="#111"><tspan x="1325" dy="0">POSEE</tspan></text><text x="1180" y="1062.7" text-anchor="middle" font-family="Arial, sans-serif" font-size="13" font-weight="400" fill="#111"><tspan x="1180" dy="0">1</tspan></text><text x="1440" y="1102.7" text-anchor="middle" font-family="Arial, sans-serif" font-size="13" font-weight="400" fill="#111"><tspan x="1440" dy="0">0..N</tspan></text><polygon points="1605,1285 1650,1355 1560,1355" fill="#fff" stroke="#333" stroke-width="2"/><text x="1605" y="1325.2" text-anchor="middle" font-family="Arial, sans-serif" font-size="13" font-weight="700" fill="#111"><tspan x="1605" dy="0">ISA</tspan></text><text x="1610" y="1390.2" text-anchor="middle" font-family="Arial, sans-serif" font-size="13" font-weight="400" fill="#111"><tspan x="1610" dy="0">Especialización total y exclusiva</tspan></text><rect x="1050" y="1510" width="180" height="60" fill="#fff" stroke="#333" stroke-width="2"/><text x="1140" y="1546" text-anchor="middle" font-family="Arial, sans-serif" font-size="15" font-weight="700" fill="#111"><tspan x="1140" dy="0">CUOTA</tspan></text><rect x="1470" y="1510" width="190" height="60" fill="#fff" stroke="#333" stroke-width="2"/><text x="1565" y="1546" text-anchor="middle" font-family="Arial, sans-serif" font-size="15" font-weight="700" fill="#111"><tspan x="1565" dy="0">MATRÍCULA</tspan></text><rect x="1880" y="1510" width="250" height="60" fill="#fff" stroke="#333" stroke-width="2"/><text x="2005" y="1546" text-anchor="middle" font-family="Arial, sans-serif" font-size="15" font-weight="700" fill="#111"><tspan x="2005" dy="0">COBRO EXTRAORDINARIO</tspan></text><rect x="1395" y="1620" width="340" height="70" fill="#fffdf2" stroke="#777" stroke-width="1.5"/><text x="1407" y="1652.6" text-anchor="start" font-family="Arial, sans-serif" font-size="12" font-weight="400" fill="#111"><tspan x="1407" dy="0">Matrícula: corresponde al primer ingreso. Una</tspan><tspan x="1407" dy="14.399999999999999">reactivación no genera una nueva.</tspan></text><rect x="100" y="1420" width="260" height="60" fill="#fff" stroke="#333" stroke-width="2"/><text x="230" y="1456" text-anchor="middle" font-family="Arial, sans-serif" font-size="15" font-weight="700" fill="#111"><tspan x="230" dy="0">CONFIGURACIÓN DE CUOTA</tspan></text><ellipse cx="115" cy="1553" rx="75" ry="23" fill="#fff" stroke="#333" stroke-width="2"/><text x="115" y="1558.2" text-anchor="middle" font-family="Arial, sans-serif" font-size="13" font-weight="400" fill="#111"><tspan x="115" dy="0">Importe general</tspan></text><ellipse cx="300" cy="1553" rx="90" ry="23" fill="#fff" stroke="#333" stroke-width="2"/><text x="300" y="1558.2" text-anchor="middle" font-family="Arial, sans-serif" font-size="13" font-weight="400" fill="#111"><tspan x="300" dy="0">Porcentaje de interés</tspan></text><ellipse cx="200" cy="1643" rx="75" ry="23" fill="#fff" stroke="#333" stroke-width="2"/><text x="200" y="1648.2" text-anchor="middle" font-family="Arial, sans-serif" font-size="13" font-weight="400" fill="#111"><tspan x="200" dy="0">Vigente desde</tspan></text><rect x="530" y="1420" width="230" height="60" fill="#fff" stroke="#333" stroke-width="2"/><text x="645" y="1456" text-anchor="middle" font-family="Arial, sans-serif" font-size="15" font-weight="700" fill="#111"><tspan x="645" dy="0">PERÍODO DE CUOTA</tspan></text><ellipse cx="560" cy="1553" rx="60" ry="23" fill="#fff" stroke="#333" stroke-width="2"/><text x="560" y="1558.2" text-anchor="middle" font-family="Arial, sans-serif" font-size="13" font-weight="400" fill="#111"><tspan x="560" dy="0">Período</tspan></text><ellipse cx="735" cy="1553" rx="95" ry="23" fill="#fff" stroke="#333" stroke-width="2"/><text x="735" y="1558.2" text-anchor="middle" font-family="Arial, sans-serif" font-size="13" font-weight="400" fill="#111"><tspan x="735" dy="0">Fecha de vencimiento</tspan></text><polygon points="440,1410 495,1449 440,1488 385,1449" fill="#fff" stroke="#333" stroke-width="2"/><text x="440" y="1454.2" text-anchor="middle" font-family="Arial, sans-serif" font-size="13" font-weight="700" fill="#111"><tspan x="440" dy="0">RIGE</tspan></text><text x="365" y="1397.7" text-anchor="middle" font-family="Arial, sans-serif" font-size="13" font-weight="400" fill="#111"><tspan x="365" dy="0">1</tspan></text><text x="535" y="1397.7" text-anchor="middle" font-family="Arial, sans-serif" font-size="13" font-weight="400" fill="#111"><tspan x="535" dy="0">0..N</tspan></text><polygon points="905,1410 980,1450 905,1490 830,1450" fill="#fff" stroke="#333" stroke-width="2"/><text x="905" y="1455.2" text-anchor="middle" font-family="Arial, sans-serif" font-size="13" font-weight="700" fill="#111"><tspan x="905" dy="0">COMPRENDE</tspan></text><text x="780" y="1397.7" text-anchor="middle" font-family="Arial, sans-serif" font-size="13" font-weight="400" fill="#111"><tspan x="780" dy="0">1</tspan></text><text x="1015" y="1397.7" text-anchor="middle" font-family="Arial, sans-serif" font-size="13" font-weight="400" fill="#111"><tspan x="1015" dy="0">0..N</tspan></text><rect x="2380" y="1000" width="190" height="60" fill="#fff" stroke="#333" stroke-width="2"/><text x="2475" y="1036" text-anchor="middle" font-family="Arial, sans-serif" font-size="15" font-weight="700" fill="#111"><tspan x="2475" dy="0">PAGO</tspan></text><ellipse cx="2265" cy="1133" rx="55" ry="23" fill="#fff" stroke="#333" stroke-width="2"/><text x="2265" y="1138.2" text-anchor="middle" font-family="Arial, sans-serif" font-size="13" font-weight="400" fill="#111"><tspan x="2265" dy="0">Fecha</tspan></text><ellipse cx="2410" cy="1133" rx="70" ry="23" fill="#fff" stroke="#333" stroke-width="2"/><text x="2410" y="1138.2" text-anchor="middle" font-family="Arial, sans-serif" font-size="13" font-weight="400" fill="#111"><tspan x="2410" dy="0">Importe total</tspan></text><ellipse cx="2600" cy="1133" rx="100" ry="23" fill="#fff" stroke="#333" stroke-width="2"/><text x="2600" y="1138.2" text-anchor="middle" font-family="Arial, sans-serif" font-size="13" font-weight="400" fill="#111"><tspan x="2600" dy="0">Medio de pago (opcional)</tspan></text><ellipse cx="2335" cy="1223" rx="55" ry="23" fill="#fff" stroke="#333" stroke-width="2"/><text x="2335" y="1228.2" text-anchor="middle" font-family="Arial, sans-serif" font-size="13" font-weight="400" fill="#111"><tspan x="2335" dy="0">Anulado</tspan></text><ellipse cx="2500" cy="1223" rx="90" ry="23" fill="#fff" stroke="#333" stroke-width="2"/><text x="2500" y="1228.2" text-anchor="middle" font-family="Arial, sans-serif" font-size="13" font-weight="400" fill="#111"><tspan x="2500" dy="0">Motivo de anulación</tspan></text><polygon points="2105,1060 2190,1104 2105,1148 2020,1104" fill="#fff" stroke="#333" stroke-width="2"/><text x="2105" y="1109.2" text-anchor="middle" font-family="Arial, sans-serif" font-size="13" font-weight="700" fill="#111"><tspan x="2105" dy="0">SE APLICA A</tspan></text><text x="2250" y="1057.7" text-anchor="middle" font-family="Arial, sans-serif" font-size="13" font-weight="400" fill="#111"><tspan x="2250" dy="0">1..N</tspan></text><text x="1905" y="1112.7" text-anchor="middle" font-family="Arial, sans-serif" font-size="13" font-weight="400" fill="#111"><tspan x="1905" dy="0">0..N</tspan></text><ellipse cx="2110" cy="1203" rx="80" ry="23" fill="#fff" stroke="#333" stroke-width="2"/><text x="2110" y="1208.2" text-anchor="middle" font-family="Arial, sans-serif" font-size="13" font-weight="400" fill="#111"><tspan x="2110" dy="0">Importe aplicado</tspan></text><rect x="2110" y="1290" width="430" height="75" fill="#fffdf2" stroke="#777" stroke-width="1.5"/><text x="2122" y="1325.1" text-anchor="start" font-family="Arial, sans-serif" font-size="12" font-weight="400" fill="#111"><tspan x="2122" dy="0">Todas las Obligaciones alcanzadas por un mismo Pago deben</tspan><tspan x="2122" dy="14.399999999999999">pertenecer al mismo Alumno.</tspan></text><rect x="3070" y="1000" width="180" height="60" fill="#fff" stroke="#333" stroke-width="2"/><text x="3160" y="1036" text-anchor="middle" font-family="Arial, sans-serif" font-size="15" font-weight="700" fill="#111"><tspan x="3160" dy="0">RECIBO</tspan></text><ellipse cx="3080" cy="1133" rx="60" ry="23" fill="#fff" stroke="#333" stroke-width="2"/><text x="3080" y="1138.2" text-anchor="middle" font-family="Arial, sans-serif" font-size="13" font-weight="400" fill="#111"><tspan x="3080" dy="0">Número</tspan></text><ellipse cx="3240" cy="1133" rx="80" ry="23" fill="#fff" stroke="#333" stroke-width="2"/><text x="3240" y="1138.2" text-anchor="middle" font-family="Arial, sans-serif" font-size="13" font-weight="400" fill="#111"><tspan x="3240" dy="0">Fecha de emisión</tspan></text><polygon points="2830,990 2900,1029 2830,1068 2760,1029" fill="#fff" stroke="#333" stroke-width="2"/><text x="2830" y="1034.2" text-anchor="middle" font-family="Arial, sans-serif" font-size="13" font-weight="700" fill="#111"><tspan x="2830" dy="0">GENERA</tspan></text><text x="2665" y="997.7" text-anchor="middle" font-family="Arial, sans-serif" font-size="13" font-weight="400" fill="#111"><tspan x="2665" dy="0">0..1</tspan></text><text x="2980" y="997.7" text-anchor="middle" font-family="Arial, sans-serif" font-size="13" font-weight="400" fill="#111"><tspan x="2980" dy="0">1</tspan></text><rect x="2860" y="1220" width="430" height="70" fill="#fffdf2" stroke="#777" stroke-width="1.5"/><text x="2872" y="1252.6" text-anchor="start" font-family="Arial, sans-serif" font-size="12" font-weight="400" fill="#111"><tspan x="2872" dy="0">Pago provisional sin conexión: puede no tener Recibo hasta</tspan><tspan x="2872" dy="14.399999999999999">sincronización y validación.</tspan></text><rect x="2500" y="1490" width="180" height="60" fill="#fff" stroke="#333" stroke-width="2"/><text x="2590" y="1526" text-anchor="middle" font-family="Arial, sans-serif" font-size="15" font-weight="700" fill="#111"><tspan x="2590" dy="0">EVENTO</tspan></text><ellipse cx="2520" cy="1618" rx="60" ry="23" fill="#fff" stroke="#333" stroke-width="2"/><text x="2520" y="1623.2" text-anchor="middle" font-family="Arial, sans-serif" font-size="13" font-weight="400" fill="#111"><tspan x="2520" dy="0">Nombre</tspan></text><ellipse cx="2647.5" cy="1618" rx="47.5" ry="23" fill="#fff" stroke="#333" stroke-width="2"/><text x="2647.5" y="1623.2" text-anchor="middle" font-family="Arial, sans-serif" font-size="13" font-weight="400" fill="#111"><tspan x="2647.5" dy="0">Año</tspan></text><rect x="2500" y="1810" width="260" height="60" fill="#fff" stroke="#333" stroke-width="2"/><text x="2630" y="1846" text-anchor="middle" font-family="Arial, sans-serif" font-size="15" font-weight="700" fill="#111"><tspan x="2630" dy="0">PEDIDO DE INDUMENTARIA</tspan></text><ellipse cx="2540" cy="1943" rx="80" ry="23" fill="#fff" stroke="#333" stroke-width="2"/><text x="2540" y="1948.2" text-anchor="middle" font-family="Arial, sans-serif" font-size="13" font-weight="400" fill="#111"><tspan x="2540" dy="0">Tipo de prenda</tspan></text><ellipse cx="2690" cy="1943" rx="50" ry="23" fill="#fff" stroke="#333" stroke-width="2"/><text x="2690" y="1948.2" text-anchor="middle" font-family="Arial, sans-serif" font-size="13" font-weight="400" fill="#111"><tspan x="2690" dy="0">Talle</tspan></text><polygon points="2265,1490 2330,1529 2265,1568 2200,1529" fill="#fff" stroke="#333" stroke-width="2"/><text x="2265" y="1534.2" text-anchor="middle" font-family="Arial, sans-serif" font-size="13" font-weight="700" fill="#111"><tspan x="2265" dy="0">ORIGINA</tspan></text><text x="2420" y="1487.7" text-anchor="middle" font-family="Arial, sans-serif" font-size="13" font-weight="400" fill="#111"><tspan x="2420" dy="0">0..N</tspan></text><text x="2140" y="1507.7" text-anchor="middle" font-family="Arial, sans-serif" font-size="13" font-weight="400" fill="#111"><tspan x="2140" dy="0">0..1</tspan></text><polygon points="2265,1810 2330,1849 2265,1888 2200,1849" fill="#fff" stroke="#333" stroke-width="2"/><text x="2265" y="1854.2" text-anchor="middle" font-family="Arial, sans-serif" font-size="13" font-weight="700" fill="#111"><tspan x="2265" dy="0">ORIGINA</tspan></text><text x="2415" y="1807.7" text-anchor="middle" font-family="Arial, sans-serif" font-size="13" font-weight="400" fill="#111"><tspan x="2415" dy="0">1</tspan></text><text x="2140" y="1807.7" text-anchor="middle" font-family="Arial, sans-serif" font-size="13" font-weight="400" fill="#111"><tspan x="2140" dy="0">0..1</tspan></text><rect x="2860" y="1580" width="470" height="90" fill="#fffdf2" stroke="#777" stroke-width="1.5"/><text x="2872" y="1622.6" text-anchor="start" font-family="Arial, sans-serif" font-size="12" font-weight="400" fill="#111"><tspan x="2872" dy="0">Restricción XOR: cada Cobro Extraordinario corresponde exactamente</tspan><tspan x="2872" dy="14.399999999999999">a un Evento o a un Pedido de Indumentaria, nunca a ambos.</tspan></text></svg>