<svg xmlns="http://www.w3.org/2000/svg" viewBox="0 0 1800 1100" role="img" aria-labelledby="title desc">
<title id="title">DER conceptual — Sistema de Gestión Rojas FC</title>
<desc id="desc">Modelo conceptual con Persona y Obligación de Pago como superentidades, relaciones, cardinalidades y restricciones principales.</desc>
<defs>
  <marker id="inherit" markerWidth="12" markerHeight="12" refX="10" refY="6" orient="auto" markerUnits="strokeWidth">
    <path d="M 10 6 L 1 1 L 1 11 Z" fill="white" stroke="#555" stroke-width="1.2"/>
  </marker>
</defs>
<rect width="1800" height="1100" fill="white"/>
<text x="900" y="34" font-family="Arial, sans-serif" font-size="20" font-weight="700" text-anchor="middle" fill="#111"><tspan x="900" dy="0">DER conceptual — Sistema de Gestión Rojas FC</tspan></text>
<g><g id="persona"><rect x="180" y="300" width="150" height="110" fill="#f7f7f7" stroke="#444" stroke-width="1.5"/><rect x="180" y="300" width="150" height="34" fill="#e9ecef" stroke="#444" stroke-width="1.5"/><text x="255" y="322" font-family="Arial, sans-serif" font-size="15" font-weight="700" text-anchor="middle" fill="#111"><tspan x="255" dy="0">Persona</tspan></text><text x="190" y="354" font-family="Arial, sans-serif" font-size="13" font-weight="400" text-anchor="start" fill="#111"><tspan x="190" dy="0">DNI</tspan><tspan x="190" dy="22">Nombre</tspan><tspan x="190" dy="22">Apellido</tspan></text></g><g id="alumno"><rect x="410" y="250" width="265" height="176" fill="#f7f7f7" stroke="#444" stroke-width="1.5"/><rect x="410" y="250" width="265" height="34" fill="#e9ecef" stroke="#444" stroke-width="1.5"/><text x="542.5" y="272" font-family="Arial, sans-serif" font-size="15" font-weight="700" text-anchor="middle" fill="#111"><tspan x="542.5" dy="0">Alumno</tspan></text><text x="420" y="304" font-family="Arial, sans-serif" font-size="13" font-weight="400" text-anchor="start" fill="#111"><tspan x="420" dy="0">Fecha de nacimiento</tspan><tspan x="420" dy="22">Colegio</tspan><tspan x="420" dy="22">Domicilio</tspan><tspan x="420" dy="22">Barrio</tspan><tspan x="420" dy="22">Localidad</tspan><tspan x="420" dy="22">Importe de cuota particular [opcional]</tspan></text></g><g id="resp"><rect x="730" y="280" width="160" height="66" fill="#f7f7f7" stroke="#444" stroke-width="1.5"/><rect x="730" y="280" width="160" height="34" fill="#e9ecef" stroke="#444" stroke-width="1.5"/><text x="810" y="302" font-family="Arial, sans-serif" font-size="15" font-weight="700" text-anchor="middle" fill="#111"><tspan x="810" dy="0">Responsable</tspan></text><text x="740" y="334" font-family="Arial, sans-serif" font-size="13" font-weight="400" text-anchor="start" fill="#111"><tspan x="740" dy="0">Teléfono</tspan></text></g><g id="admin"><rect x="410" y="155" width="175" height="66" fill="#f7f7f7" stroke="#444" stroke-width="1.5"/><rect x="410" y="155" width="175" height="34" fill="#e9ecef" stroke="#444" stroke-width="1.5"/><text x="497.5" y="177" font-family="Arial, sans-serif" font-size="15" font-weight="700" text-anchor="middle" fill="#111"><tspan x="497.5" dy="0">Administrador</tspan></text></g><g id="usuario"><rect x="175" y="455" width="160" height="66" fill="#f7f7f7" stroke="#444" stroke-width="1.5"/><rect x="175" y="455" width="160" height="34" fill="#e9ecef" stroke="#444" stroke-width="1.5"/><text x="255" y="477" font-family="Arial, sans-serif" font-size="15" font-weight="700" text-anchor="middle" fill="#111"><tspan x="255" dy="0">Usuario</tspan></text><text x="185" y="509" font-family="Arial, sans-serif" font-size="13" font-weight="400" text-anchor="start" fill="#111"><tspan x="185" dy="0">Contraseña</tspan></text></g><g id="mov"><rect x="730" y="385" width="220" height="110" fill="#f7f7f7" stroke="#444" stroke-width="1.5"/><rect x="730" y="385" width="220" height="34" fill="#e9ecef" stroke="#444" stroke-width="1.5"/><text x="840" y="407" font-family="Arial, sans-serif" font-size="15" font-weight="700" text-anchor="middle" fill="#111"><tspan x="840" dy="0">Movimiento de Alumno</tspan></text><text x="740" y="439" font-family="Arial, sans-serif" font-size="13" font-weight="400" text-anchor="start" fill="#111"><tspan x="740" dy="0">Tipo</tspan><tspan x="740" dy="22">Fecha</tspan><tspan x="740" dy="22">Observación</tspan></text></g><g id="pre"><rect x="35" y="640" width="320" height="374" fill="#f7f7f7" stroke="#444" stroke-width="1.5"/><rect x="35" y="640" width="320" height="34" fill="#e9ecef" stroke="#444" stroke-width="1.5"/><text x="195" y="662" font-family="Arial, sans-serif" font-size="15" font-weight="700" text-anchor="middle" fill="#111"><tspan x="195" dy="0">Preinscripción</tspan></text><text x="45" y="694" font-family="Arial, sans-serif" font-size="13" font-weight="400" text-anchor="start" fill="#111"><tspan x="45" dy="0">Datos declarados del alumno</tspan><tspan x="45" dy="22">Nombre</tspan><tspan x="45" dy="22">Apellido</tspan><tspan x="45" dy="22">DNI</tspan><tspan x="45" dy="22">Fecha de nacimiento</tspan><tspan x="45" dy="22">Domicilio</tspan><tspan x="45" dy="22">Barrio</tspan><tspan x="45" dy="22">Localidad</tspan><tspan x="45" dy="22">Colegio</tspan><tspan x="45" dy="22">Datos declarados del responsable (1..2)</tspan><tspan x="45" dy="22">Nombre</tspan><tspan x="45" dy="22">Apellido</tspan><tspan x="45" dy="22">DNI</tspan><tspan x="45" dy="22">Teléfono</tspan><tspan x="45" dy="22">Vínculo</tspan></text></g><g id="pago"><rect x="915" y="205" width="275" height="154" fill="#f7f7f7" stroke="#444" stroke-width="1.5"/><rect x="915" y="205" width="275" height="34" fill="#e9ecef" stroke="#444" stroke-width="1.5"/><text x="1052.5" y="227" font-family="Arial, sans-serif" font-size="15" font-weight="700" text-anchor="middle" fill="#111"><tspan x="1052.5" dy="0">Pago</tspan></text><text x="925" y="259" font-family="Arial, sans-serif" font-size="13" font-weight="400" text-anchor="start" fill="#111"><tspan x="925" dy="0">Fecha</tspan><tspan x="925" dy="22">Importe total</tspan><tspan x="925" dy="22">Medio de pago [opcional]</tspan><tspan x="925" dy="22">Anulado</tspan><tspan x="925" dy="22">Motivo de anulación [condicional]</tspan></text></g><g id="rec"><rect x="1250" y="230" width="185" height="88" fill="#f7f7f7" stroke="#444" stroke-width="1.5"/><rect x="1250" y="230" width="185" height="34" fill="#e9ecef" stroke="#444" stroke-width="1.5"/><text x="1342.5" y="252" font-family="Arial, sans-serif" font-size="15" font-weight="700" text-anchor="middle" fill="#111"><tspan x="1342.5" dy="0">Recibo</tspan></text><text x="1260" y="284" font-family="Arial, sans-serif" font-size="13" font-weight="400" text-anchor="start" fill="#111"><tspan x="1260" dy="0">Número</tspan><tspan x="1260" dy="22">Fecha de emisión</tspan></text></g><g id="obl"><rect x="915" y="500" width="220" height="66" fill="#f7f7f7" stroke="#444" stroke-width="1.5"/><rect x="915" y="500" width="220" height="34" fill="#e9ecef" stroke="#444" stroke-width="1.5"/><text x="1025" y="522" font-family="Arial, sans-serif" font-size="15" font-weight="700" text-anchor="middle" fill="#111"><tspan x="1025" dy="0">Obligación de Pago</tspan></text><text x="925" y="554" font-family="Arial, sans-serif" font-size="13" font-weight="400" text-anchor="start" fill="#111"><tspan x="925" dy="0">Importe</tspan></text></g><g id="extra"><rect x="1260" y="400" width="220" height="66" fill="#f7f7f7" stroke="#444" stroke-width="1.5"/><rect x="1260" y="400" width="220" height="34" fill="#e9ecef" stroke="#444" stroke-width="1.5"/><text x="1370" y="422" font-family="Arial, sans-serif" font-size="15" font-weight="700" text-anchor="middle" fill="#111"><tspan x="1370" dy="0">Cobro Extraordinario</tspan></text></g><g id="mat"><rect x="1260" y="500" width="150" height="66" fill="#f7f7f7" stroke="#444" stroke-width="1.5"/><rect x="1260" y="500" width="150" height="34" fill="#e9ecef" stroke="#444" stroke-width="1.5"/><text x="1335" y="522" font-family="Arial, sans-serif" font-size="15" font-weight="700" text-anchor="middle" fill="#111"><tspan x="1335" dy="0">Matrícula</tspan></text></g><g id="cuota"><rect x="1260" y="590" width="120" height="66" fill="#f7f7f7" stroke="#444" stroke-width="1.5"/><rect x="1260" y="590" width="120" height="34" fill="#e9ecef" stroke="#444" stroke-width="1.5"/><text x="1320" y="612" font-family="Arial, sans-serif" font-size="15" font-weight="700" text-anchor="middle" fill="#111"><tspan x="1320" dy="0">Cuota</tspan></text></g><g id="conf"><rect x="900" y="680" width="225" height="110" fill="#f7f7f7" stroke="#444" stroke-width="1.5"/><rect x="900" y="680" width="225" height="34" fill="#e9ecef" stroke="#444" stroke-width="1.5"/><text x="1012.5" y="702" font-family="Arial, sans-serif" font-size="15" font-weight="700" text-anchor="middle" fill="#111"><tspan x="1012.5" dy="0">Configuración de Cuota</tspan></text><text x="910" y="734" font-family="Arial, sans-serif" font-size="13" font-weight="400" text-anchor="start" fill="#111"><tspan x="910" dy="0">Importe general</tspan><tspan x="910" dy="22">Porcentaje de interés</tspan><tspan x="910" dy="22">Vigente desde</tspan></text></g><g id="per"><rect x="1190" y="700" width="230" height="88" fill="#f7f7f7" stroke="#444" stroke-width="1.5"/><rect x="1190" y="700" width="230" height="34" fill="#e9ecef" stroke="#444" stroke-width="1.5"/><text x="1305" y="722" font-family="Arial, sans-serif" font-size="15" font-weight="700" text-anchor="middle" fill="#111"><tspan x="1305" dy="0">Período de Cuota</tspan></text><text x="1200" y="754" font-family="Arial, sans-serif" font-size="13" font-weight="400" text-anchor="start" fill="#111"><tspan x="1200" dy="0">Período</tspan><tspan x="1200" dy="22">Fecha de vencimiento</tspan></text></g><g id="evento"><rect x="1510" y="330" width="145" height="88" fill="#f7f7f7" stroke="#444" stroke-width="1.5"/><rect x="1510" y="330" width="145" height="34" fill="#e9ecef" stroke="#444" stroke-width="1.5"/><text x="1582.5" y="352" font-family="Arial, sans-serif" font-size="15" font-weight="700" text-anchor="middle" fill="#111"><tspan x="1582.5" dy="0">Evento</tspan></text><text x="1520" y="384" font-family="Arial, sans-serif" font-size="13" font-weight="400" text-anchor="start" fill="#111"><tspan x="1520" dy="0">Nombre</tspan><tspan x="1520" dy="22">Año</tspan></text></g><g id="pedido"><rect x="1500" y="440" width="235" height="88" fill="#f7f7f7" stroke="#444" stroke-width="1.5"/><rect x="1500" y="440" width="235" height="34" fill="#e9ecef" stroke="#444" stroke-width="1.5"/><text x="1617.5" y="462" font-family="Arial, sans-serif" font-size="15" font-weight="700" text-anchor="middle" fill="#111"><tspan x="1617.5" dy="0">Pedido de Indumentaria</tspan></text><text x="1510" y="494" font-family="Arial, sans-serif" font-size="13" font-weight="400" text-anchor="start" fill="#111"><tspan x="1510" dy="0">Tipo de prenda</tspan><tspan x="1510" dy="22">Talle</tspan></text></g><g id="nPersona"><rect x="25" y="185" rx="3" ry="3" width="345" height="79" fill="#fffde7" stroke="#888" stroke-width="1.2"/><text x="35" y="206" font-family="Arial, sans-serif" font-size="12" font-weight="400" text-anchor="start" fill="#111"><tspan x="35" dy="0">Especialización TOTAL y EXCLUSIVA:</tspan><tspan x="35" dy="19">Alumno | Responsable | Administrador.</tspan><tspan x="35" dy="19">Los subtipos heredan DNI, Nombre y Apellido.</tspan></text></g><g id="nUsuario"><rect x="25" y="500" rx="3" ry="3" width="300" height="60" fill="#fffde7" stroke="#888" stroke-width="1.2"/><text x="35" y="521" font-family="Arial, sans-serif" font-size="12" font-weight="400" text-anchor="start" fill="#111"><tspan x="35" dy="0">Solo Responsable y Administrador</tspan><tspan x="35" dy="19">pueden poseer Usuario.</tspan></text></g><g id="nObl"><rect x="865" y="405" rx="3" ry="3" width="355" height="79" fill="#fffde7" stroke="#888" stroke-width="1.2"/><text x="875" y="426" font-family="Arial, sans-serif" font-size="12" font-weight="400" text-anchor="start" fill="#111"><tspan x="875" dy="0">Especialización TOTAL y EXCLUSIVA:</tspan><tspan x="875" dy="19">Cuota | Matrícula | Cobro Extraordinario.</tspan><tspan x="875" dy="19">Los subtipos heredan Importe.</tspan></text></g><g id="nMat"><rect x="1450" y="505" rx="3" ry="3" width="280" height="79" fill="#fffde7" stroke="#888" stroke-width="1.2"/><text x="1460" y="526" font-family="Arial, sans-serif" font-size="12" font-weight="400" text-anchor="start" fill="#111"><tspan x="1460" dy="0">Primer ingreso.</tspan><tspan x="1460" dy="19">Reactivación no genera otra.</tspan><tspan x="1460" dy="19">Pago total, sin parciales.</tspan></text></g><g id="nPago"><rect x="630" y="125" rx="3" ry="3" width="300" height="60" fill="#fffde7" stroke="#888" stroke-width="1.2"/><text x="640" y="146" font-family="Arial, sans-serif" font-size="12" font-weight="400" text-anchor="start" fill="#111"><tspan x="640" dy="0">Las obligaciones incluidas en un mismo Pago</tspan><tspan x="640" dy="19">deben pertenecer al mismo Alumno.</tspan></text></g><g id="nXor"><rect x="1470" y="575" rx="3" ry="3" width="275" height="60" fill="#fffde7" stroke="#888" stroke-width="1.2"/><text x="1480" y="596" font-family="Arial, sans-serif" font-size="12" font-weight="400" text-anchor="start" fill="#111"><tspan x="1480" dy="0">XOR: exactamente un Evento</tspan><tspan x="1480" dy="19">O un Pedido de Indumentaria.</tspan></text></g><g id="nPre"><rect x="40" y="1000" rx="3" ry="3" width="310" height="79" fill="#fffde7" stroke="#888" stroke-width="1.2"/><text x="50" y="1021" font-family="Arial, sans-serif" font-size="12" font-weight="400" text-anchor="start" fill="#111"><tspan x="50" dy="0">Pendiente de revisión.</tspan><tspan x="50" dy="19">No representa registros definitivos</tspan><tspan x="50" dy="19">ni genera obligaciones económicas.</tspan></text></g><line x1="410" y1="188" x2="330" y2="318" stroke="#555" stroke-width="1.5" marker-end="url(#inherit)"/><line x1="410" y1="338" x2="330" y2="346" stroke="#555" stroke-width="1.5" marker-end="url(#inherit)"/><line x1="730" y1="313" x2="330" y2="374" stroke="#555" stroke-width="1.5" marker-end="url(#inherit)"/><line x1="1260" y1="433" x2="1135" y2="518" stroke="#555" stroke-width="1.5" marker-end="url(#inherit)"/><line x1="1260" y1="533" x2="1135" y2="538" stroke="#555" stroke-width="1.5" marker-end="url(#inherit)"/><line x1="1260" y1="623" x2="1135" y2="558" stroke="#555" stroke-width="1.5" marker-end="url(#inherit)"/><line x1="255" y1="410" x2="255" y2="455" stroke="#555" stroke-width="1.5"/><text x="255" y="438" font-family="Arial, sans-serif" font-size="12" font-weight="400" text-anchor="middle" fill="#111"><tspan x="255" dy="0">posee cuenta</tspan></text><text x="188" y="425" font-family="Arial, sans-serif" font-size="12" font-weight="400" text-anchor="middle" fill="#111"><tspan x="188" dy="0">1</tspan></text><text x="250" y="470" font-family="Arial, sans-serif" font-size="12" font-weight="400" text-anchor="middle" fill="#111"><tspan x="250" dy="0">0..1</tspan></text><line x1="675" y1="310" x2="730" y2="315" stroke="#555" stroke-width="1.5"/><text x="700" y="250" font-family="Arial, sans-serif" font-size="12" font-weight="400" text-anchor="middle" fill="#111"><tspan x="700" dy="0">tiene como responsable</tspan><tspan x="700" dy="16">[Vínculo]</tspan></text><text x="682" y="296" font-family="Arial, sans-serif" font-size="12" font-weight="400" text-anchor="middle" fill="#111"><tspan x="682" dy="0">1..N</tspan></text><text x="718" y="314" font-family="Arial, sans-serif" font-size="12" font-weight="400" text-anchor="middle" fill="#111"><tspan x="718" dy="0">1..2</tspan></text><line x1="675" y1="368" x2="730" y2="425" stroke="#555" stroke-width="1.5"/><text x="700" y="370" font-family="Arial, sans-serif" font-size="12" font-weight="400" text-anchor="middle" fill="#111"><tspan x="700" dy="0">registra</tspan></text><text x="684" y="353" font-family="Arial, sans-serif" font-size="12" font-weight="400" text-anchor="middle" fill="#111"><tspan x="684" dy="0">1</tspan></text><text x="716" y="398" font-family="Arial, sans-serif" font-size="12" font-weight="400" text-anchor="middle" fill="#111"><tspan x="716" dy="0">1..N</tspan></text><line x1="542.5" y1="426" x2="915" y2="525" stroke="#555" stroke-width="1.5"/><text x="800" y="492" font-family="Arial, sans-serif" font-size="12" font-weight="400" text-anchor="middle" fill="#111"><tspan x="800" dy="0">posee</tspan></text><text x="554" y="460" font-family="Arial, sans-serif" font-size="12" font-weight="400" text-anchor="middle" fill="#111"><tspan x="554" dy="0">1</tspan></text><text x="894" y="515" font-family="Arial, sans-serif" font-size="12" font-weight="400" text-anchor="middle" fill="#111"><tspan x="894" dy="0">0..N</tspan></text><line x1="1190" y1="280" x2="1250" y2="275" stroke="#555" stroke-width="1.5"/><text x="1220" y="260" font-family="Arial, sans-serif" font-size="12" font-weight="400" text-anchor="middle" fill="#111"><tspan x="1220" dy="0">genera</tspan></text><text x="1200" y="246" font-family="Arial, sans-serif" font-size="12" font-weight="400" text-anchor="middle" fill="#111"><tspan x="1200" dy="0">1</tspan></text><text x="1236" y="282" font-family="Arial, sans-serif" font-size="12" font-weight="400" text-anchor="middle" fill="#111"><tspan x="1236" dy="0">0..1</tspan></text><line x1="1052.5" y1="359" x2="1025" y2="500" stroke="#555" stroke-width="1.5"/><text x="1050" y="458" font-family="Arial, sans-serif" font-size="12" font-weight="400" text-anchor="middle" fill="#111"><tspan x="1050" dy="0">se aplica a</tspan><tspan x="1050" dy="16">[Importe aplicado]</tspan></text><text x="1003" y="410" font-family="Arial, sans-serif" font-size="12" font-weight="400" text-anchor="middle" fill="#111"><tspan x="1003" dy="0">0..N</tspan></text><text x="1092" y="493" font-family="Arial, sans-serif" font-size="12" font-weight="400" text-anchor="middle" fill="#111"><tspan x="1092" dy="0">1..N</tspan></text><line x1="1125" y1="735" x2="1190" y2="744" stroke="#555" stroke-width="1.5"/><text x="1158" y="724" font-family="Arial, sans-serif" font-size="12" font-weight="400" text-anchor="middle" fill="#111"><tspan x="1158" dy="0">rige</tspan></text><text x="1137" y="706" font-family="Arial, sans-serif" font-size="12" font-weight="400" text-anchor="middle" fill="#111"><tspan x="1137" dy="0">1</tspan></text><text x="1172" y="747" font-family="Arial, sans-serif" font-size="12" font-weight="400" text-anchor="middle" fill="#111"><tspan x="1172" dy="0">0..N</tspan></text><line x1="1305" y1="700" x2="1320" y2="656" stroke="#555" stroke-width="1.5"/><text x="1292" y="672" font-family="Arial, sans-serif" font-size="12" font-weight="400" text-anchor="middle" fill="#111"><tspan x="1292" dy="0">comprende</tspan></text><text x="1218" y="682" font-family="Arial, sans-serif" font-size="12" font-weight="400" text-anchor="middle" fill="#111"><tspan x="1218" dy="0">1</tspan></text><text x="1297" y="612" font-family="Arial, sans-serif" font-size="12" font-weight="400" text-anchor="middle" fill="#111"><tspan x="1297" dy="0">0..N</tspan></text><line x1="1510" y1="374" x2="1480" y2="420" stroke="#555" stroke-width="1.5"/><text x="1490" y="350" font-family="Arial, sans-serif" font-size="12" font-weight="400" text-anchor="middle" fill="#111"><tspan x="1490" dy="0">origina</tspan></text><text x="1492" y="330" font-family="Arial, sans-serif" font-size="12" font-weight="400" text-anchor="middle" fill="#111"><tspan x="1492" dy="0">0..1</tspan></text><text x="1492" y="405" font-family="Arial, sans-serif" font-size="12" font-weight="400" text-anchor="middle" fill="#111"><tspan x="1492" dy="0">0..N</tspan></text><line x1="1500" y1="484" x2="1480" y2="445" stroke="#555" stroke-width="1.5"/><text x="1490" y="465" font-family="Arial, sans-serif" font-size="12" font-weight="400" text-anchor="middle" fill="#111"><tspan x="1490" dy="0">origina</tspan></text><text x="1487" y="444" font-family="Arial, sans-serif" font-size="12" font-weight="400" text-anchor="middle" fill="#111"><tspan x="1487" dy="0">0..1</tspan></text><text x="1492" y="490" font-family="Arial, sans-serif" font-size="12" font-weight="400" text-anchor="middle" fill="#111"><tspan x="1492" dy="0">1</tspan></text><line x1="370" y1="224.5" x2="180" y2="300" stroke="#888" stroke-width="1.5" stroke-dasharray="6 5"/><line x1="325" y1="530" x2="175" y2="488" stroke="#888" stroke-width="1.5" stroke-dasharray="6 5"/><line x1="1042.5" y1="484" x2="1025" y2="500" stroke="#888" stroke-width="1.5" stroke-dasharray="6 5"/><line x1="1450" y1="544.5" x2="1410" y2="533" stroke="#888" stroke-width="1.5" stroke-dasharray="6 5"/><line x1="930" y1="155" x2="915" y2="225" stroke="#888" stroke-width="1.5" stroke-dasharray="6 5"/><line x1="1470" y1="605" x2="1480" y2="433" stroke="#888" stroke-width="1.5" stroke-dasharray="6 5"/><line x1="195" y1="1000" x2="195" y2="1014" stroke="#888" stroke-width="1.5" stroke-dasharray="6 5"/></g></svg>